HIERARCHY
ROOT Hips
{
 OFFSET 0.000000 0.000000 0.000000
 CHANNELS 6 Xposition Yposition Zposition Yrotation Xrotation Zrotation
 JOINT Chest
 {
  OFFSET 0.000000 9.588913 -0.003946
  CHANNELS 3 Yrotation Xrotation Zrotation
  JOINT Chest2
  {
   OFFSET 0.000000 9.541882 0.008053
   CHANNELS 3 Yrotation Xrotation Zrotation
   JOINT Chest3
   {
    OFFSET 0.000000 9.501360 0.000000
    CHANNELS 3 Yrotation Xrotation Zrotation
    JOINT Chest4
    {
     OFFSET 0.000000 9.491660 0.000000
     CHANNELS 3 Yrotation Xrotation Zrotation
     JOINT Neck
     {
      OFFSET 0.000000 14.331917 0.000000
      CHANNELS 3 Yrotation Xrotation Zrotation
      JOINT Head
      {
       OFFSET 0.000000 8.884799 0.017034
       CHANNELS 3 Yrotation Xrotation Zrotation
       End Site
       {
        OFFSET 0.000000 16.896195 0.008993
       }
      }
     }
     JOINT RightCollar
     {
      OFFSET -2.923010 9.499495 0.000000
      CHANNELS 3 Yrotation Xrotation Zrotation
      JOINT RightShoulder
      {
       OFFSET -13.795216 0.000000 0.000000
       CHANNELS 3 Yrotation Xrotation Zrotation
       JOINT RightElbow
       {
        OFFSET -30.272209 0.000000 0.000000
        CHANNELS 3 Yrotation Xrotation Zrotation
        JOINT RightWrist
        {
         OFFSET -24.478199 0.000000 0.000000
         CHANNELS 3 Yrotation Xrotation Zrotation
         End Site
         {
          OFFSET -18.090752 0.000000 0.000000
         }
        }
       }
      }
     }
     JOINT LeftCollar
     {
      OFFSET 2.923010 9.499495 0.000000
      CHANNELS 3 Yrotation Xrotation Zrotation
      JOINT LeftShoulder
      {
       OFFSET 13.795216 0.000000 0.000000
       CHANNELS 3 Yrotation Xrotation Zrotation
       JOINT LeftElbow
       {
        OFFSET 30.272209 0.000000 0.000000
        CHANNELS 3 Yrotation Xrotation Zrotation
        JOINT LeftWrist
        {
         OFFSET 24.478199 0.000000 0.000000
         CHANNELS 3 Yrotation Xrotation Zrotation
         End Site
         {
          OFFSET 18.090752 0.000000 0.000000
         }
        }
       }
      }
     }
    }
   }
  }
 }
 JOINT RightHip
 {
  OFFSET -7.826875 0.019532 0.001973
  CHANNELS 3 Yrotation Xrotation Zrotation
  JOINT RightKnee
  {
   OFFSET 0.000000 -40.546152 -0.001885
   CHANNELS 3 Yrotation Xrotation Zrotation
   JOINT RightAnkle
   {
    OFFSET 0.000000 -39.417092 -0.003189
    CHANNELS 3 Yrotation Xrotation Zrotation
    JOINT RightToe
    {
     OFFSET 0.000000 -7.579396 17.243563
     CHANNELS 3 Yrotation Xrotation Zrotation
     End Site
     {
      OFFSET 0.000000 -1.500329 6.694466
     }
    }
   }
  }
 }
 JOINT LeftHip
 {
  OFFSET 7.826875 0.019532 0.001973
  CHANNELS 3 Yrotation Xrotation Zrotation
  JOINT LeftKnee
  {
   OFFSET 0.000000 -40.546152 -0.001885
   CHANNELS 3 Yrotation Xrotation Zrotation
   JOINT LeftAnkle
   {
    OFFSET 0.000000 -39.417092 -0.003189
    CHANNELS 3 Yrotation Xrotation Zrotation
    JOINT LeftToe
    {
     OFFSET 0.000000 -7.579396 17.243563
     CHANNELS 3 Yrotation Xrotation Zrotation
     End Site
     {
      OFFSET 0.000000 -1.500329 6.694466
     }
    }
   }
  }
 }
}
MOTION
Frames: 8
Frame Time: 0.008333
56.129272 87.449758 -77.220889 145.279656 -10.204411 1.946688 3.547674 4.888554 2.058142 2.049381 2.703574 0.544806 2.566454 3.376278 0.696304 2.049382 2.703576 0.544806 7.739215 22.062957 -2.025307 8.985677 -1.692984 -4.014802 2.302506 -1.915798 0.294094 2.224582 -6.228694 84.146573 17.504845 0.912540 7.365877 2.764517 -3.123061 -1.650094 -4.209201 2.414210 2.291743 8.776757 2.786613 -91.676515 2.898863 -0.103252 2.872880 -1.915879 -1.508413 2.803656 -8.940821 20.909847 -8.161170 1.403011 4.246722 -0.047697 -1.900433 -13.447952 5.632473 -0.125447 1.514618 0.180837 4.442647 -3.760840 6.943152 -0.904662 10.289490 1.442287 -4.504005 4.263387 -8.851577 -0.340142 -1.363767 0.096415
56.067602 87.468173 -76.869826 145.582105 -10.115632 1.918525 3.529517 4.910367 2.192618 2.033959 2.712088 0.589756 2.547521 3.386694 0.752441 2.033960 2.712091 0.589757 7.699455 22.024346 -2.022314 8.938594 -1.743037 -4.001645 2.244177 -1.874195 0.215365 2.042690 -6.246556 84.095380 18.098888 0.822830 7.375192 2.853097 -3.147343 -1.714273 -4.234516 2.469353 2.228681 8.493713 2.697750 -92.036742 3.006786 -0.098753 2.981172 -1.830412 -1.671081 2.677018 -8.978738 20.724878 -7.993542 1.435015 4.110010 0.056598 -2.005123 -13.332316 5.393251 -0.121342 1.553985 0.157395 4.737764 -3.930583 7.059772 -0.923581 9.741794 1.325677 -4.874821 4.835081 -8.915030 -0.358298 -1.409616 0.097632
55.998896 87.487689 -76.525982 145.879113 -10.005091 1.897473 3.511541 4.921536 2.321572 2.018921 2.715050 0.637073 2.529075 3.390160 0.811507 2.018923 2.715053 0.637074 7.641800 21.999602 -2.009554 8.868799 -1.778915 -3.973285 2.187631 -1.836597 0.136296 1.870313 -6.236861 84.027669 18.639208 0.744699 7.374260 2.942700 -3.167825 -1.787676 -4.247887 2.534401 2.170612 8.192049 2.599729 -92.430910 3.133807 -0.236864 3.074529 -1.763931 -2.010749 2.553532 -9.025116 20.513608 -7.836748 1.438977 3.974700 0.151525 -2.082865 -13.205376 5.171029 -0.114773 1.584764 0.135152 5.075737 -4.121747 7.150548 -0.973598 9.206218 1.209660 -5.237816 5.352626 -8.960066 -0.373454 -1.426602 0.089391
55.922262 87.508846 -76.191442 146.182110 -9.876131 1.894277 3.486745 4.921534 2.435824 2.001020 2.712501 0.685818 2.507046 3.386740 0.872306 2.001022 2.712504 0.685819 7.567819 21.988637 -1.984900 8.777601 -1.800663 -3.927781 2.140762 -1.802188 0.054937 1.702826 -6.201111 83.941376 19.117960 0.675870 7.369198 3.036045 -3.186888 -1.865016 -4.245419 2.611039 2.121015 7.893379 2.507117 -92.865369 3.278437 -0.508405 3.157191 -1.745048 -2.475879 2.454122 -9.101831 20.279947 -7.704450 1.404234 3.838588 0.231373 -2.127601 -13.069970 4.971277 -0.105099 1.608992 0.113609 5.406837 -4.322775 7.200803 -1.021735 8.686735 1.098676 -5.587046 5.797830 -8.979273 -0.385024 -1.405158 0.067816
55.837025 87.532727 -75.867539 146.493419 -9.731465 1.919975 3.450471 4.909093 2.526194 1.978380 2.704409 0.734667 2.479078 3.376405 0.933171 1.978383 2.704412 0.734670 7.480578 21.991341 -1.944052 8.667485 -1.808304 -3.861169 2.107676 -1.765468 -0.029818 1.544828 -6.141890 83.836518 19.531330 0.610937 7.361226 3.133027 -3.207825 -1.941653 -4.224190 2.698141 2.080271 7.629534 2.429728 -93.342486 3.428512 -0.851269 3.261412 -1.806943 -3.008799 2.379885 -9.209274 20.030269 -7.606593 1.339358 3.694317 0.293682 -2.152023 -12.925856 4.794730 -0.094030 1.628154 0.094400 5.712360 -4.523379 7.195874 -1.036691 8.188459 1.000689 -5.926469 6.146878 -8.971321 -0.390557 -1.331681 0.035707
55.743019 87.561110 -75.555392 146.804474 -9.577262 1.986689 3.404110 4.887209 2.584926 1.952473 2.692554 0.781339 2.446998 3.361390 0.991269 1.952477 2.692556 0.781342 7.380565 22.004700 -1.883564 8.538174 -1.805483 -3.769813 2.081455 -1.731853 -0.115847 1.404832 -6.055295 83.713669 19.876533 0.539981 7.352183 3.230254 -3.229461 -2.016678 -4.191375 2.789229 2.046637 7.427740 2.372114 -93.848192 3.580151 -1.205936 3.407414 -1.985191 -3.563496 2.339460 -9.329650 19.774371 -7.554005 1.264829 3.534385 0.343402 -2.179616 -12.771492 4.633458 -0.083708 1.643583 0.081993 6.013662 -4.713550 7.124450 -0.999493 7.722064 0.915946 -6.261967 6.370958 -8.935381 -0.386554 -1.190722 0.002263
55.640801 87.596304 -75.255524 147.110750 -9.422213 2.101786 3.349820 4.859596 2.606933 1.924604 2.679305 0.823873 2.412427 3.344667 1.044173 1.924607 2.679307 0.823876 7.265896 22.027187 -1.802179 8.387284 -1.794157 -3.651949 2.056275 -1.707851 -0.196117 1.279777 -5.938928 83.571015 20.150041 0.463290 7.343892 3.323179 -3.249783 -2.083858 -4.151391 2.877548 2.019630 7.287921 2.335275 -94.360815 3.740188 -1.567572 3.590777 -2.300815 -4.072022 2.375955 -9.447765 19.522203 -7.553480 1.193615 3.356583 0.385917 -2.226065 -12.604126 4.476315 -0.074427 1.653218 0.081429 6.341540 -4.886684 6.981395 -0.909420 7.306410 0.834325 -6.577052 6.439827 -8.861575 -0.369607 -0.967913 -0.024823
55.528834 87.640744 -74.968251 147.413608 -9.269526 2.281007 3.287496 4.826288 2.574004 1.894709 2.666418 0.861465 2.375284 3.328433 1.090886 1.894711 2.666419 0.861467 7.134574 22.057349 -1.699394 8.212544 -1.776116 -3.506642 2.034504 -1.688497 -0.262762 1.155146 -5.803739 83.405381 20.345544 0.382694 7.334018 3.413044 -3.263321 -2.133349 -4.103646 2.962273 1.996634 7.181567 2.304063 -94.856185 3.916056 -1.962455 3.790101 -2.726704 -4.495307 2.566196 -9.567096 19.274014 -7.622533 1.120014 3.159089 0.420544 -2.286692 -12.405098 4.320719 -0.064253 1.641025 0.093447 6.716009 -5.039812 6.748248 -0.772497 6.964075 0.748223 -6.831571 6.300946 -8.739258 -0.332399 -0.629384 -0.038023
